<?xml version="1.0" encoding="utf-8"?>
<!-- Generator: Adobe Illustrator 22.1.0, SVG Export Plug-In . SVG Version: 6.00 Build 0)  -->
<svg version="1.1" id="Layer_1" xmlns="http://www.w3.org/2000/svg" xmlns:xlink="http://www.w3.org/1999/xlink" x="0px" y="0px"
	 viewBox="0 0 21.3 19" style="enable-background:new 0 0 21.3 19;" xml:space="preserve">
<style type="text/css">
	.st0{fill:#454546;}
	.st1{fill:#4E4E4E;}
	.st2{opacity:0.16;fill:#BBBBBB;}
	.st3{fill:#BBBBBB;}
	.st4{fill:#646565;}
</style>
<title>monitor</title>
<g>
	<polygon class="st0" points="6.3,17.5 7.4,17.4 13.4,17.3 14.5,17.5 14.5,17.8 6.3,17.8 	"/>
	<polygon class="st1" points="13.4,17.5 7.4,17.5 8.4,15 12.6,15 	"/>
	<rect x="0.4" y="2.6" class="st0" width="20.4" height="12.4"/>
	<rect x="1" y="3.2" class="st1" width="19.4" height="10.9"/>
	<polygon class="st2" points="20.4,14.1 5.2,14.1 15.3,4.5 16.7,3.2 20.4,3.2 	"/>
	<g>
		<g>
		</g>
		<g>
			<rect x="6.1" y="7.5" class="st3" width="8.7" height="0.1"/>
			<rect x="6.1" y="8.1" class="st3" width="7.6" height="0.1"/>
			<rect x="6.1" y="8.8" class="st3" width="7.6" height="0.1"/>
			<rect x="6.2" y="11.3" class="st4" width="1.3" height="1.3"/>
			<rect x="7.8" y="11.3" class="st4" width="1.3" height="1.3"/>
			<rect x="6.1" y="4.4" class="st4" width="9.7" height="2.4"/>
			<rect x="9.5" y="11.3" class="st4" width="1.3" height="1.3"/>
			<rect x="6.1" y="10.2" class="st3" width="3" height="0.1"/>
			<rect x="6.1" y="9.6" class="st3" width="3" height="0.1"/>
			<rect x="9.9" y="10.2" class="st3" width="3" height="0.1"/>
			<rect x="9.9" y="9.6" class="st3" width="3" height="0.1"/>
		</g>
	</g>
</g>
<g>
	<circle class="st4" cx="10.8" cy="14.5" r="0.2"/>
</g>
</svg>
