<svg xmlns="http://www.w3.org/2000/svg" width="1718" height="517" viewBox="0 0 1718 517">
  <defs>
    <style>
      .cls-1 {
        fill: #c1272d;
        fill-rule: evenodd;
      }
    </style>
  </defs>
  <path id="Vitro" class="cls-1" d="M404.7,75.743V99.652H252.313v58.926H404.705L240.238,441.625,75.77,158.578H228.4V99.652H75.773V75.743H404.7ZM117.65,182.536L240.479,393.923,363.308,182.536H252.313v28.315a37.757,37.757,0,1,1-23.909.076V182.536H117.65Zm636-2.264c-21.474,50.8-40.852,102.652-64.42,153.454-4.19-.524-4.19-5.761-5.761-8.38-25.139-55.515-39.8-93.748-58.658-142.979-13.094-33.519-22.521-53.945-31.424-84.321a23.038,23.038,0,0,1-1.048-5.237c0-12.046,19.9-6.809,19.9-15.188-4.713,0-8.9-.524-13.093-0.524a190.425,190.425,0,0,0-31.424,2.619C555.679,78.667,545.2,77.1,534.206,77.1c-4.714,0-17.807,0-17.807,2.619,0,1.571.524,2.095,2.1,2.095,29.853,1.047,36.661,18.854,47.136,42.946,35.614,82.75,69.657,171.785,105.27,256.63,2.619,6.808,5.238,15.188,10.475,15.188,1.048,0,2.619-.523,4.714-2.1,28.8-57.087,53.944-115.221,78.56-178.069C779.837,177.13,802.882,119,813.88,97c5.761-11.522,20.949-15.188,36.661-16.236,0.524-4.19-17.807-4.19-21.473-4.19a155.7,155.7,0,0,0-26.186,3.142c-6.809-2.095-18.331-2.619-27.235-2.619-5.237,0-9.427,0-11.522.524,0,6.809,18.855-1.047,18.855,14.665C782.98,111.139,760.459,159.323,753.651,180.272ZM925.43,157.228c-4.714,0-25.14.523-29.853,1.047l-9.951.524c-5.761-1.571-13.094-1.571-19.379-1.571-13.093,0-23.568-.524-23.568,3.142,0,2.619,28.282-2.095,28.282,26.187V320.633c0,11,.524,42.422-2.619,54.992-3.142,13.617-29.329,8.9-29.329,15.188,0,2.619,6.809,3.143,12.046,3.143,10.475,0,24.092-2.1,36.662-2.1,4.713,0,11,2.618,34.042,2.618,6.809,0,14.141-1.047,14.141-5.761,0-1.571-18.854-3.142-20.949-4.19-12.57,0-13.617-16.759-13.617-36.137,0-25.14,0-41.375.523-56.04,0.524-26.187,1.572-112.079,3.143-119.411,3.666-16.236,24.092-7.333,24.092-15.189ZM1143.3,209.6c0.52,0,1.04.524,1.57,0.524,3.66,0,3.66-4.714,3.66-11,0-13.093-.52-42.422-8.38-42.422-35.09,0-76.46,2.619-119.41,2.619-19.9,0-38.753-1.572-51.323-6.285-5.761,8.379-4.189,25.663-10.474,38.756,0,2.619-2.619,6.809-2.619,10.475,0,1.047,0,3.142,1.571,3.142,4.19,0,11-16.759,20.426-23.568,12.57-4.713,25.139-5.237,39.8-5.237h20.95c0,24.615.53,49.755,0.53,75.418,0,13.093-.53,26.186-0.53,39.28v31.947c0,6.809.53,13.618,0.53,20.95a209.1,209.1,0,0,1-2.1,30.9c-6.28,16.76-30.37,6.809-30.37,15.188,0,3.667,6.8,4.19,12.04,4.19,15.71,0,26.19-2.095,38.76-2.095,9.95,0,18.85,1.572,27.23,1.572,3.15,0,12.57,0,15.71-2.1,0-5.238-3.14-5.761-6.28-5.761-22.52,0-24.62-8.38-24.62-26.711,0-57.087,1.58-114.174,1.58-174.927a6.575,6.575,0,0,1-.53-3.143,19.422,19.422,0,0,1,.53-5.237c2.09,0,3.66.524,5.23,0.524,7.34,0,19.38-.524,26.71-0.524C1123.4,176.082,1133.35,179.224,1143.3,209.6Zm265,175.975a30.56,30.56,0,0,1-6.81,1.047c-34.56,0-65.99-47.66-104.75-101.08,17.29-12.57,37.19-34.043,37.19-63.372,0-47.66-30.9-64.943-70.7-64.943-15.72,0-31.95,1.571-44.52,1.571-13.62,0-26.19-1.571-43.47-1.571,0,13.617,27.23-3.667,27.23,31.424V352.581c0,45.041-31.94,29.852-31.94,37.185,0,3.142,9.42,3.666,18.33,3.666,10.99,0,26.18-1.571,39.28-1.571a102.166,102.166,0,0,0,13.09,1.047h6.28c5.24,0,13.1-.524,13.1-5.237-33.52-2.619-26.71-31.948-28.81-56.04,0-13.093-.52-29.853-0.52-33.519,0-5.237,30.37-3.142,35.61-3.666,34.57,51.326,60.23,99.51,115.22,99.51,9.95,0,26.71-1.048,26.71-6.809C1408.82,386.623,1408.3,386.1,1408.3,385.576ZM1277.89,279.258c-8.38,2.618-14.66,3.666-20.95,3.666-8.38,0-15.71-1.571-24.09-2.619,2.09-30.9-1.05-67.562,3.14-106.842a93.014,93.014,0,0,1,12.57-.523c37.71,0,54.47,26.186,54.47,55.515C1303.03,252.024,1293.6,276.639,1277.89,279.258Zm319.47-104.747c-20.95-15.712-42.42-23.044-79.6-23.044-67.04,0-115.75,53.42-115.75,121.506,0,75.418,59.18,122.554,120.98,122.554,57.61,0,119.94-45.041,119.94-124.649C1642.93,231.074,1625.12,194.936,1597.36,174.511ZM1571.7,368.293a78.191,78.191,0,0,1-42.94,13.093c-40.33,0-91.66-34.043-91.66-118.888,0-41.9,22-97.414,78.56-97.414,59.71,0,92.18,63.9,92.18,115.745C1607.84,316.443,1595.79,347.343,1571.7,368.293Z"/>
</svg>
