<?xml version="1.0" encoding="utf-8"?>
<!-- Generator: Adobe Illustrator 22.1.0, SVG Export Plug-In . SVG Version: 6.00 Build 0)  -->
<svg version="1.1" id="Layer_1" xmlns="http://www.w3.org/2000/svg" xmlns:xlink="http://www.w3.org/1999/xlink" x="0px" y="0px"
	 viewBox="0 0 20.4 20.4" style="enable-background:new 0 0 20.4 20.4;" xml:space="preserve">
<style type="text/css">
	.st0{fill:#454546;}
	.st1{fill:#4E4E4E;}
	.st2{opacity:0.16;fill:#BBBBBB;}
	.st3{fill:#BBBBBB;}
	.st4{fill:#646565;}
	.st5{opacity:0.13;fill:#434343;}
	.st6{opacity:0.45;fill:#434343;}
	.st7{fill:#AEAEAE;}
	.st8{opacity:0.72;}
	.st9{enable-background:new    ;}
	.st10{clip-path:url(#SVGID_2_);}
	.st11{fill:#F4F5F5;}
	.st12{fill:#38D430;}
</style>
<title>website</title>
<g>
	<polygon class="st0" points="8.9,10.9 9.1,10.9 9.7,10.9 9.9,10.9 9.9,11 8.9,11 	"/>
	<polygon class="st1" points="9.7,10.9 9.1,10.9 9.2,10.7 9.6,10.7 	"/>
	<rect x="8.3" y="9.2" class="st0" width="2.3" height="1.4"/>
	<rect x="8.3" y="9.3" class="st1" width="2.2" height="1.2"/>
	<polygon class="st2" points="10.5,10.6 8.8,10.6 10,9.5 10.1,9.3 10.5,9.3 	"/>
	<g>
		<g>
		</g>
		<g>
			<rect x="8.9" y="9.8" class="st3" width="1" height="0"/>
			<rect x="8.9" y="9.9" class="st3" width="0.9" height="0"/>
			<rect x="8.9" y="9.9" class="st3" width="0.9" height="0"/>
			<rect x="8.9" y="10.2" class="st4" width="0.1" height="0.1"/>
			<rect x="9.1" y="10.2" class="st4" width="0.1" height="0.1"/>
			<rect x="8.9" y="9.4" class="st4" width="1.1" height="0.3"/>
			<rect x="9.3" y="10.2" class="st4" width="0.1" height="0.1"/>
			<rect x="8.9" y="10.1" class="st3" width="0.3" height="0"/>
			<rect x="8.9" y="10" class="st3" width="0.3" height="0"/>
			<rect x="9.3" y="10.1" class="st3" width="0.3" height="0"/>
			<rect x="9.3" y="10" class="st3" width="0.3" height="0"/>
		</g>
	</g>
</g>
<g>
	<circle class="st4" cx="9.4" cy="10.6" r="0"/>
</g>
<g>
	<g>
		<path class="st5" d="M12,19.8l3.7,0.6c1.2-0.2,2-0.6,2.1-1.2l-4.8-0.4L12,19.8z"/>
	</g>
	<polygon class="st0" points="17.8,19.2 6,18.4 2.5,0.3 17.8,0.6 	"/>
	<path class="st1" d="M15.7,20.4c-5.3-0.4-9.7-1-12.8-2L2.5,0.3c3.5,0.4,7.9,0.4,13.2,0V20.4z"/>
	<path class="st6" d="M15.7,20.4c-5.4-0.4-9.8-1-12.8-2L2.5,0.3l1.9,13.8c0.2,1.5,1.4,2.8,3.1,3.4L15.7,20.4z"/>
	<polygon class="st4" points="13.5,7.4 4.1,7 4.1,4.2 13.5,4.2 	"/>
	
		<rect x="10.5" y="7.6" transform="matrix(4.738402e-02 -0.9989 0.9989 4.738402e-02 -0.2467 20.3138)" class="st7" width="0.1" height="5.4"/>
	
		<rect x="10.4" y="8.1" transform="matrix(4.738305e-02 -0.9989 0.9989 4.738305e-02 -0.8066 20.7865)" class="st7" width="0.1" height="5.4"/>
	
		<rect x="10.5" y="8.6" transform="matrix(4.738402e-02 -0.9989 0.9989 4.738402e-02 -1.3051 21.3232)" class="st7" width="0.1" height="5.4"/>
	<polygon class="st7" points="13.3,9.1 4.1,8.6 4.1,8.1 13.3,8.5 	"/>
	<g class="st8">
		<g>
			<g class="st9">
				<defs>
					<polygon id="SVGID_1_" class="st9" points="7.4,17.3 7.5,16.1 9.3,16.4 9.2,17.6 					"/>
				</defs>
				<clipPath id="SVGID_2_">
					<use xlink:href="#SVGID_1_"  style="overflow:visible;"/>
				</clipPath>
				<g class="st10">
					<g>
						<g>
							<g>
								<polyline class="st11" points="8.5,16.2 8.1,16.2 8,16.3 8.1,16.4 8.3,16.4 8.4,16.5 8.5,16.6 9.2,16.7 9.3,16.6 9.2,16.5 
									8.7,16.4 8.6,16.3 8.5,16.2 								"/>
								<polyline class="st11" points="9,16.9 8.2,16.7 8.1,16.8 8.2,16.9 8.5,17 8.6,17.1 8.5,17.1 8.4,17.1 8.3,17.2 8.3,17.3 
									7.5,17.2 7.4,17.3 7.5,17.3 8.4,17.5 8.5,17.4 8.6,17.3 9.2,17.4 9.3,17.4 9.2,17.3 8.9,17.2 8.8,17.1 8.9,17 9,17 9,17 
									9,16.9 								"/>
								<polyline class="st12" points="7.7,16.1 7.7,16.2 7.7,16.3 7.8,16.2 7.7,16.1 								"/>
							</g>
						</g>
					</g>
				</g>
			</g>
		</g>
	</g>
</g>
</svg>
